<?xml version="1.0" encoding="UTF-8" standalone="no" ?>
<!DOCTYPE svg PUBLIC "-//W3C//DTD SVG 1.1//EN" "http://www.w3.org/Graphics/SVG/1.1/DTD/svg11.dtd">
<svg xmlns="http://www.w3.org/2000/svg" xmlns:xlink="http://www.w3.org/1999/xlink" version="1.1" width="32" height="32" viewBox="0 0 32 32" xml:space="preserve">
<desc>Created with Fabric.js 4.6.0</desc>
<defs>
</defs>
<g transform="matrix(1 0 0 1 15.51 16)" id="sM5oGrBavh9CwHyYcg783"  >
<path style="stroke: rgb(0,0,0); stroke-width: 0; stroke-dasharray: none; stroke-linecap: butt; stroke-dashoffset: 0; stroke-linejoin: miter; stroke-miterlimit: 4; fill: rgb(255,85,85); fill-rule: nonzero; opacity: 1;" vector-effect="non-scaling-stroke"  transform=" translate(-11.13, -16)" d="M 3.55466 0.00011 C 3.8965300000000003 0.00011 4.17365 0.27723 4.17365 0.6191000000000001 L 4.17365 8.34785 L 8.34762 8.34785 C 8.34762 9.884599999999999 7.101759999999999 11.13046 5.565009999999999 11.13046 L 4.173759999999999 11.13046 L 4.173759999999999 15.30433 C 4.173759999999999 16.84108 5.419619999999998 18.08694 6.956369999999999 18.08694 C 8.695459999999999 18.08694 11.130339999999999 18.08694 11.130339999999999 18.08694 L 11.130339999999999 10.541659999999998 C 11.130339999999999 10.098349999999998 11.4897 9.739099999999999 11.932899999999998 9.739099999999999 L 14.435719999999998 9.739099999999999 C 14.915399999999998 9.739099999999999 15.304199999999998 10.127899999999999 15.304199999999998 10.607579999999999 L 15.304199999999998 18.08694 C 19.14622 18.08694 22.260669999999998 21.2015 22.260669999999998 25.043419999999998 L 22.260669999999998 31.043529999999997 C 22.260669999999998 31.57174 21.83251 31.999899999999997 21.304299999999998 31.999899999999997 L 18.902279999999998 31.999899999999997 C 18.451929999999997 31.999899999999997 18.086809999999996 31.634779999999996 18.086809999999996 31.184429999999995 L 18.086809999999996 25.043419999999998 C 18.086809999999996 23.506669999999996 16.840949999999996 22.26081 15.304199999999996 22.26081 L 15.304199999999996 31.009929999999997 C 15.304199999999996 31.556699999999996 14.860999999999997 31.999899999999997 14.314229999999997 31.999899999999997 L 12.095779999999998 31.999899999999997 C 11.562549999999998 31.999899999999997 11.130339999999999 31.567689999999995 11.130339999999999 31.034459999999996 L 11.130339999999999 22.260809999999996 C 11.130339999999999 22.260809999999996 9.73909 22.260809999999996 6.956479999999998 22.260809999999996 C 3.114459999999998 22.260809999999996 0.000009999999997845066 19.146249999999995 0.000009999999997845066 15.304329999999997 L 0.000009999999997845066 0.5737699999999961 C 0.000009999999997845066 0.2568599999999961 0.25685999999999787 0.000009999999996068709 0.5737699999999979 0.000009999999996068709 z" stroke-linecap="round" />
</g>
</svg>